<?xml version="1.0" encoding="utf-8"?>
<!-- Generator: Adobe Illustrator 22.1.0, SVG Export Plug-In . SVG Version: 6.00 Build 0)  -->
<svg version="1.1" id="Layer_1" xmlns="http://www.w3.org/2000/svg" xmlns:xlink="http://www.w3.org/1999/xlink" x="0px" y="0px"
	 viewBox="0 0 316 314.3" width="317.081826198" height="315.376006247" style="enable-background:new 0 0 316 314.3;" xml:space="preserve">
<style type="text/css">
	.st0{fill:#231F20;}
	.st1{fill:none;stroke:#231F20;stroke-width:7;stroke-miterlimit:10;}
</style>
<title>Layer 2</title>
<g>
	<g>
		<polygon class="st0" points="96.1,252.3 83.4,242.4 81.1,245.4 90.3,252.5 86.7,257.2 78.7,251 76.5,253.8 84.6,260 81.6,263.8 
			72.6,256.8 70.4,259.7 83,269.3 		"/>
		<path class="st0" d="M60.5,249.7l-3.3-3.6l11-20l3.1,3.4l-2.5,4l5.2,5.8l4.3-2l3.1,3.4L60.5,249.7z M67.1,236.7l-5,8.3l8.9-4
			L67.1,236.7z"/>
		<path class="st0" d="M61.6,228.5c3.4-2.1,4.8-6.5,1.5-11.8s-7.7-5.9-10.8-3.9c-2.3,1.4-3.5,4.1-2.4,7.8l1.6,5
			c0.5,1.5,0.4,1.8,0.3,2.2c-0.1,0.5-0.4,0.9-0.9,1.2c-1.1,0.7-2.9,0.6-4.5-2.1c-0.7-1-1-2.2-0.8-3.4c0.2-0.9,0.7-1.6,1.5-2.1
			l-2.3-3.6c-1.6,1-2.7,2.6-3.1,4.4c-0.3,2.4,0.3,4.8,1.7,6.8c3.1,4.8,7.1,5.4,10.2,3.6c2.4-1.5,3.5-3.9,2.3-7.7l-1.4-4.3
			c-0.5-0.9-0.6-2-0.3-3c0.2-0.5,0.5-0.9,0.9-1.2c1.2-0.8,3.1-0.7,4.9,2.3c1.9,3,1,5-0.8,6.1L61.6,228.5"/>
		<polygon class="st0" points="54.5,202 52.9,197.8 36.2,204.6 33.7,198.5 30.4,199.9 37,216.2 40.3,214.8 37.8,208.7 		"/>
		<polygon class="st0" points="49.7,189.5 46.2,173.8 42.7,174.6 45.1,185.9 39.3,187.2 37.1,177.2 33.7,178 35.9,188 31.2,189 
			28.8,177.8 25.2,178.6 28.7,194.1 		"/>
		<path class="st0" d="M45.6,169.1L24,169.7l-0.3-9.9c-0.4-4.5,2.5-7.3,5.8-7.4c2.7-0.2,5.1,1.8,5.4,4.5c0.1-1.1,0.5-2.1,1.3-2.9
			c0.8-0.7,1.8-1.2,2.9-1.2l3.7-0.5c0.8-0.1,1.6-0.3,2.3-0.8l0.1,4.5c-1.7,0.9-3.6,0.5-5.3,1c-0.5,0.1-0.9,0.3-1.4,0.5
			c-1.2,0.7-1.8,2-1.7,3.4l0.1,3.8l8.6-0.2L45.6,169.1 M33.6,165l-0.1-4.7c0.2-1.7-1.1-3.3-2.8-3.4c-0.1,0-0.2,0-0.3,0
			c-1.7,0-3,1.4-3,3.1c0,0.1,0,0.3,0,0.4l0.1,4.9L33.6,165"/>
		<polygon class="st0" points="45.4,147.4 46.1,143.2 31.7,140.8 47.5,134.4 48.3,130 27,126.5 26.3,130.8 40.7,133.1 24.8,139.7 
			24.1,144 		"/>
		<polygon class="st0" points="56.7,107.6 58.6,103.8 42.7,87.5 40.6,91.7 52.7,103.2 36.4,100.1 34.1,104.3 		"/>
		<polygon class="st0" points="63.3,95.2 65.7,91.4 47.9,79.3 45.3,83.1 		"/>
		<path class="st0" d="M68.7,87.5L52.6,73l6.6-7.4c2.9-3.6,6.8-3.6,9.4-1.4c2.1,1.7,2.5,4.8,0.8,7c0.8-0.8,1.8-1.2,2.9-1.2
			c1.1,0,2.1,0.4,2.9,1.1l3.1,2.3c0.7,0.5,1.4,0.8,2.2,1l-3,3.4c-1.9-0.5-3-2.1-4.5-3c-0.4-0.3-0.8-0.5-1.3-0.6
			c-1.3-0.3-2.7,0.2-3.6,1.3l-2.7,2.9l6.3,5.7L68.7,87.5 M62.8,76.1l3.3-3.6c1.5-1.7,1.4-3.6,0.1-4.6c-0.8-0.7-1.9-1-2.9-0.7
			c-0.5,0.1-0.9,0.3-1.7,1.2l-3.4,3.6L62.8,76.1"/>
		<path class="st0" d="M86.6,59.3l4.2-3.3c1.5,2.5,0.8,5.7-1.5,7.5c-2.5,1.9-6.3,1.8-9.5-2.5c-2.7-3.5-3-7.8,0.1-10.1
			c1.9-1.5,4.6-1.5,6.4,0.1l3.4-2.8c-1.4-1.3-3.1-2.1-5-2.3c-2.6-0.2-5.1,0.6-7.1,2.3c-5.2,3.9-4.9,10.6-1.2,15.5
			c2.4,3.1,5,4.5,7.8,4.8c2.4,0.4,4.9-0.2,6.8-1.7c1.2-0.8,2.1-1.9,2.8-3.2c0.6-1.2,0.8-2.5,0.6-3.7l1.9,2.2l2.7-2L92,51.2l-7.3,5.5
			L86.6,59.3"/>
		<polygon class="st0" points="102.5,57.9 106.6,55.7 96.2,36.8 92.2,38.9 		"/>
		<polygon class="st0" points="110.9,53.5 115,52.1 109.8,38.4 123.3,49 127.6,47.3 120,27.2 115.9,28.7 121,42.3 107.4,31.8 
			103.3,33.4 		"/>
		<polygon class="st0" points="132.2,46 136.7,45.2 131.9,24 127.6,25 		"/>
		<path class="st0" d="M144.7,22.5l4.7-0.4l9.4,20.8l-4.5,0.4l-1.8-4.3l-7.8,0.7l-1,4.6l-4.5,0.4L144.7,22.5z M151.1,35.6l-3.6-9.1
			l-2.1,9.6L151.1,35.6z"/>
		<polygon class="st0" points="175.3,44 179.4,45 183,29.9 183.8,46 188,47 196.1,33 192.5,48.1 196.5,49.1 201.6,28.1 195.3,26.6 
			187.3,40.9 186.7,24.5 180.4,23.1 		"/>
		<polygon class="st0" points="201.1,50.8 215.6,57.8 217.1,54.3 206.7,49.4 209.3,44.1 218.4,48.4 220,45.2 210.8,40.8 212.9,36.5 
			223.2,41.4 224.7,38.2 210.3,31.3 		"/>
		<path class="st0" d="M219.5,60.1l12.8-17.4l7.5,5.6c3.7,2.8,5,8.3,0.7,14.1c-4,5.5-9.9,5.9-13.5,3.3L219.5,60.1 M225.4,59.8
			l3.4,2.5c2.5,1.8,5.3,1.7,8.2-2.2c1.7-2.3,2.2-4.1,2.1-5.5c0-1.7-0.6-2.9-2.8-4.4l-2.5-1.8L225.4,59.8"/>
		<polygon class="st0" points="237.4,73.8 240.6,77 255.7,61.5 252.5,58.4 		"/>
		<path class="st0" d="M258.5,87.7c-0.7,0.4-1.5,0.7-2.4,0.7c-1.5,0-3-0.8-3.8-2.1c-1.9-2.5-1.8-6.3,2.6-9.6c4.3-3.3,7.9-2.5,9.8,0
			c1.6,1.8,1.5,4.5-0.1,6.2l2.8,3.3c1.3-1.3,2.1-2.9,2.4-4.7c0.3-2-0.3-4.3-2.3-6.9c-5-6.5-11.9-3.9-15.3-1.4
			c-5.9,4.5-6.4,10.9-3,15.5c2.9,3.6,7.8,5.4,11.9,2.7L258.5,87.7"/>
		<path class="st0" d="M278.9,93.7l2.2,4.2l-15.9,16.4l-2.1-4l3.5-3.3l-3.6-7l-4.7,0.8l-2.1-4L278.9,93.7z M269,104.4l7.1-6.7
			l-9.6,1.6L269,104.4z"/>
		<polygon class="st0" points="266,116.6 270.4,130.9 274,129.8 270.9,119.7 288,114.5 286.7,110.3 		"/>
		<path class="st0" d="M279.8,146.7c-3.9,0-7.5,3.1-7.5,9.3s3.6,9.1,7.1,9c2.7,0,5.1-1.8,6-5.4l1.3-5.1c0.1-0.8,0.4-1.5,0.9-2.1
			c0.4-0.4,0.9-0.6,1.4-0.6c1.3,0,2.8,1.1,2.8,4.1c0.1,1.2-0.3,2.4-1.1,3.3c-0.6,0.6-1.4,1-2.3,1.1v4.2c1.8,0,3.6-0.8,4.8-2.2
			c1.5-1.9,2.2-4.3,2.1-6.7c-0.1-5.7-3.3-8.3-6.8-8.3c-2.8,0-4.9,1.6-5.9,5.4l-1.1,4.4c-0.1,1-0.5,2-1.3,2.7
			c-0.4,0.3-0.9,0.5-1.5,0.6c-1.4,0-3-1-3.1-4.5c-0.1-3.6,1.7-4.8,3.8-4.7L279.8,146.7"/>
		<path class="st0" d="M277,185c-0.8-0.3-1.5-0.7-2.1-1.3c-1-1.2-1.4-2.8-1-4.2c0.6-3.1,3.6-5.5,8.9-4.5c5.3,1,7.1,4.3,6.5,7.3
			c-0.2,2.4-2.3,4.1-4.6,4l-0.6,4.2c1.8,0.1,3.6-0.4,5.1-1.4c2-1.5,3.3-3.7,3.6-6.2c1.6-8.1-4.9-11.5-9.2-12.3
			c-7.3-1.4-12.5,2.5-13.5,8.1c-0.9,4.6,1.2,9.5,5.9,10.8L277,185"/>
		<polygon class="st0" points="267.9,191.9 266.3,196.1 275.1,199.6 271.9,207.6 263.1,204 261.4,208 281.5,216.2 283.1,212.1 
			275.2,208.9 278.4,201 286.3,204.1 288,200.1 		"/>
		<path class="st0" d="M253.2,219.8c3.7-5.5,10.4-5.7,15.4-2.4c2.2,1.5,4,3.6,4.9,6.1c1.1,3.1,0.7,6.5-1.3,9.2
			c-3.9,5.9-10.9,5.1-15.2,2.3S249,226,253.2,219.8 M256.2,222c-1,1.4-1.2,3.2-0.5,4.7c0.7,1.9,2,3.4,3.7,4.4c4.5,3,8.3,1.8,9.9-0.6
			c1.6-2.4,1.3-6.3-3.3-9.3C264.4,220.1,259.1,217.7,256.2,222"/>
		<path class="st0" d="M238.1,238c4.8-4.6,11.3-3.5,15.5,0.9c1.9,1.9,3.1,4.3,3.6,7c0.5,3.2-0.7,6.5-3.2,8.7c-5,4.9-11.7,2.8-15.4-1
			C235.2,250.1,232.7,243.3,238.1,238 M240.5,240.7c-1.2,1.2-1.8,2.9-1.5,4.5c0.4,2,1.3,3.8,2.8,5.1c3.7,3.8,7.7,3.5,9.8,1.5
			c2.1-2,2.6-5.9-1.2-9.8C249,240.6,244.4,237.1,240.5,240.7"/>
		<polygon class="st0" points="228,248.2 215.5,256.4 217.5,259.6 226.3,253.9 236.1,268.8 239.8,266.3 		"/>
		<path class="st0" d="M123.9,289.4l4.2,1.1l5.4-20.9l-3.6-1c-0.5,1.3-1.7,2.3-3.2,2.5c-1.3,0.2-2.7,0.2-3.9-0.2l-0.7,2.6l5.4,1.4
			L123.9,289.4"/>
		<path class="st0" d="M136.2,286.8l4.1,0.3c0,1.3,1.1,2.7,3.4,3c1.7,0.2,3.4-0.6,4.2-2.2c0.6-1.1,1-2.2,1.1-3.5
			c-1.5,1.2-3.5,1.8-5.4,1.5c-4.1-0.3-7.2-3.9-6.9-8c0-0.1,0-0.3,0-0.4c0.5-4.2,4-7.4,9.3-6.8c4.8,0.5,8.6,4.2,7.8,12
			c-0.2,3-1.3,5.8-3.2,8.2c-1.7,1.9-4.3,2.9-6.9,2.6C138.9,292.8,136.5,289.9,136.2,286.8 M144.6,282.5c2.2,0.3,4.3-1.2,4.6-3.5
			v-0.4c0.3-2.3-1.3-4.4-3.6-4.7c-2.3-0.3-4.4,1.3-4.7,3.6v0.5c-0.3,2.2,1.2,4.3,3.5,4.6C144.4,282.5,144.5,282.5,144.6,282.5"/>
		<path class="st0" d="M160.2,293.5l4.9-0.3c0-6.8,2.4-13.4,7-18.4l-0.2-3.6l-15.6,0.9l0.2,3.6l10.9-0.6
			C162.3,281.3,160.2,287.4,160.2,293.5"/>
		<path class="st0" d="M175.7,285.1c0.4,2.2,1.7,4.1,3.6,5.2c1.5,0.9,3.5,1.3,6.3,0.7c3.2-0.7,4.6-1.8,5.7-3.2
			c1.2-1.4,1.6-3.3,1.2-5c-0.6-2.9-3.4-4.9-6.3-4.3h-0.1c2.4-0.6,3.9-2.9,3.4-5.3c-0.4-1.7-1.6-3.1-3.2-3.8
			c-1.7-0.7-3.7-0.9-5.5-0.4c-5.6,1.2-6.5,5.5-5.9,8.4l4-0.7c-0.5-2.5,0.8-4.2,2.8-4.6c1.6-0.5,3.4,0.5,3.8,2.1c0,0,0,0,0,0.1
			c0.3,1.5-0.5,3.5-4,3.9l0.6,2.9c2.1-0.5,3-0.4,3.6-0.2c1.3,0.3,2.2,1.3,2.5,2.6c0.3,2-1,3.9-3.1,4.2c0,0-0.1,0-0.1,0
			c-2.1,0.6-4.3-0.7-4.8-2.8c-0.1-0.2-0.1-0.4-0.1-0.6L175.7,285.1"/>
		<polygon class="st0" points="103.9,280.4 105.7,274.7 111.7,274.7 106.9,271.2 108.7,265.6 103.9,269 99.1,265.6 100.9,271.2 
			96.1,274.7 102,274.7 		"/>
		<polygon class="st0" points="206.6,281.3 208.2,276.2 213.4,276.2 209.2,273.2 210.7,268.3 206.6,271.3 202.4,268.3 203.9,273.2 
			199.7,276.2 204.9,276.2 		"/>
	</g>
	<path class="st0" d="M237.5,108.6c-0.1-0.3-1.3-9.5-6.4-15.7c-3.2-3.9-7.1-7.1-11.5-9.4c-12-5.8-26.3-3.8-36.2,5.2
		c-6-5.6-13.9-8.8-22.1-8.8c-8.2,0-16.1,3-22.2,8.4c-0.4-0.3-0.8-0.6-1.1-1c-0.9-0.9-1.8-1.7-2.9-2.5c-6-4.3-13.3-6.5-20.7-6.1
		c-5.8,0.2-11.5,2-16.4,5.2c-3.3,2.2-6.2,4.9-8.6,8.1c-1.1,1.5-2,3.2-2.8,4.9c-0.7,1.7-1.4,3.4-1.9,5.2c-0.2,0.6-0.2,1.3-0.4,1.9
		c-0.4,1.8-0.6,3.5-0.7,5.3c0,1,0,1.9,0.1,2.9c0,1.4,0.1,2.8,0.4,4.2c0.3,1.2,0.5,2.5,0.9,3.6c0.7,2.1,1.6,4,2.4,6
		c0.6,1.5,1.3,3,2,4.5l1.2,2.7c0.6,1.3,1.1,2.5,1.7,3.6s1.2,2.3,1.7,3.4c0.6,1.4,1.2,2.8,1.9,4c0.9,1.9,1.8,3.7,2.7,5.5
		c0.4,0.8,0.7,1.6,1.1,2.3l0.6,1.2c0.3,0.7,0.8,2,0.8,2s-1.4,2.9-1.9,3.6c-1.4,2.5-4.8,9.2-5.3,10.1c-0.8,1.6-1.7,3.1-2.5,4.6
		c-0.6,1.2-1.1,2.5-1.8,3.6c-0.9,1.7-1.9,3.4-2.8,5.1c-0.6,1.1-1,2.3-1.5,3.4c-1.1,2.2-2.1,4.5-2.9,6.8c-0.2,0.7-0.3,1.4-0.5,2.2
		c-0.5,1.6-0.7,3.3-0.7,4.9c-0.1,1.9-0.1,3.8,0.2,5.6c0.1,0.7,0.1,1.4,0.3,2.1c0.4,1.8,0.9,3.6,1.5,5.3c0.3,0.8,0.8,1.6,1.1,2.4
		c0.5,1.2,1.1,2.4,1.9,3.6c1.8,2.9,4.2,5.5,6.9,7.7c4.6,3.7,11.8,7.6,19.2,7.6c15,0,22-7.4,22.4-7.7c0.3-0.1,0.5-0.3,0.7-0.6
		c6.2,6,14.6,9.4,23.3,9.3c8.1-0.1,15.9-3.2,21.8-8.8c0.1,0.2,0.3,0.3,0.5,0.4c5.9,5.5,13.8,8.6,21.9,8.5c10.6,0.1,20.5-5,26.6-13.6
		c1.5-2.1,2.7-4.3,3.6-6.7c0.6-1.4,1.1-2.9,1.4-4.4c0.5-2.1,0.8-4.3,0.8-6.4c-0.1-1.5,0-3-0.1-4.5c-0.2-1.4-0.4-2.8-0.8-4.2
		c-0.5-2-1.2-4-2.1-5.9c-1.3-2.7-2.4-5.5-3.6-8.2c-0.8-1.7-1.7-3.3-2.5-4.9c-0.7-1.5-1.4-3-2.2-4.4c-0.2-0.3-0.4-0.7-0.5-1.1
		c-0.5-1.2-1.1-2.5-1.6-3.6c-0.8-1.8-1.7-3.6-2.5-5.3c-0.3-0.5-0.6-1-0.8-1.6c-0.5-0.9-0.6-2-0.1-3c1.4-2.6,2.7-5.2,4-7.9
		c1-1.9,1.9-3.7,2.9-5.5l4.4-8.6c0.8-1.7,1.7-3.3,2.5-4.9c0.7-1.4,1.4-2.9,2.1-4.2c1-2,1.8-4.1,2.3-6.3c0.6-2.1,0.9-4.2,0.9-6.3
		C237.7,111.7,237.7,110.1,237.5,108.6z M139.4,90.3c0.5-0.5,9.2-8.5,21.1-8.5c7.9-0.1,15.5,2.8,21.3,8.2c-0.2,0.4-0.5,0.7-0.8,1
		c-1.3-1.1-2.4-1.9-3.6-3c-2-1.3-4.2-2.4-6.4-3.3c-4-1.4-8.3-2-12.5-1.7c-2.6,0.1-5.2,0.6-7.6,1.5c-1.3,0.5-2.6,1-3.8,1.7
		c-0.8,0.4-1.5,0.8-2.2,1.3c-1.6,1-3.1,2.1-4.4,3.4c-2.1,2-3.9,4.2-5.3,6.6c-0.9,1.4-1.6,2.8-2.3,4.3c-1.5,2.9-15.9,29.7-15.9,29.7
		l-0.6-1.2c0,0,9.4-18.3,15.1-29c1.4-2.5,2.9-4.8,4.4-7.1c0.3-0.4,0.6-0.7,0.9-1.1C137.6,92.2,138.5,91.2,139.4,90.3L139.4,90.3z
		 M211.4,121.6c0,0,3-6,3.2-7.3c0.2-1,0.2-2,0-3c-0.2-1.3-0.6-2.5-1.3-3.6c-0.6-0.8-1.2-1.5-2-2.2c-1.1-1-2.3-1.7-3.7-2
		c-1-0.3-2-0.3-3.1-0.2c-1,0.2-2.1,0.5-3.1,0.9c-1.4,0.6-2.6,1.6-3.6,2.8c-1,1.4-1.8,2.8-2.6,4.3c-0.9,1.7-22.8,44.1-22.8,44.1
		l-0.6-1.2c0,0,23.4-45.5,24.3-47c0.7-1.1,1.6-2.1,2.6-2.9c1-0.8,2.1-1.4,3.4-1.8c2.2-0.6,4.6-0.5,6.8,0.3c1.9,0.7,3.5,1.8,4.8,3.4
		c1.6,2,2.4,4.5,2.3,7.1c-0.2,1.1-0.5,2.3-0.9,3.4c-0.8,1.9-8.7,17.1-8.7,17.1l-0.6-1.2L211.4,121.6z M205.2,129.2
		c-0.2,0.3-0.3,0.7-0.5,1c-0.6-1.3-8-17-8-17s2-3.8,2.6-4.8c1.1-1.7,2.9-2.8,4.9-3.1c1.1-0.2,2.3-0.1,3.4,0.2c1.1,0.3,2.1,0.8,3,1.6
		c0.7,0.5,1.2,1.2,1.6,2c0.6,1.2,0.9,2.4,0.9,3.7c-0.1,1-0.3,2-0.7,3c-0.6,1.4-1.3,2.8-2.2,4.1c-1,1.8-1.8,3.6-2.8,5.5
		C206.6,126.6,205.9,127.9,205.2,129.2z M196.9,210.3c1.1,1.1,2.5,1.8,3.9,2.2c0.6,0.2,1.3,0.3,2,0.4c3-0.3,5.7-1.2,7.6-3.6
		c1.2-1.5,1.9-3.4,2-5.3c0-1.6-0.3-3.2-1-4.7c-0.7-1.6-1.5-3.1-2.3-4.5c-1-2.1-7.5-16.6-8.3-18.3c-0.6-1.4-1.2-2.8-1.9-4.1
		c-0.4-1-0.9-1.9-1.4-2.9c-0.6-1.3-14.3-30.5-14.3-30.5l3.1-6c0.2,0.3,0.4,0.6,0.5,0.9c0.7,1.4,1.4,2.9,2.1,4.2
		c0.3,0.6,0.6,1.2,0.8,1.9l2.4,5c0.9,1.9,1.8,3.6,2.7,5.5c0.6,1.3,1.1,2.6,1.8,3.7c1.3,2.5,2.4,5,3.6,7.5c0.8,1.6,1.5,3.3,2.3,4.8
		c1,2.2,2.1,4.4,3.1,6.6l3,6.2c0.6,1.2,1.1,2.5,1.7,3.6c0.8,1.6,1.6,3.3,2.4,4.8c0.8,1.6,1.4,3.1,2.1,4.5c0.2,0.5,0.5,1,0.7,1.5
		c0.6,1.3,1.2,2.5,1.7,3.7c0.5,1.3,0.9,2.6,1,3.9c0,0.3,0.2,0.7,0.2,1c0,1.2-0.1,2.3-0.3,3.5c-0.1,0.6-0.2,1.1-0.3,1.7
		c-0.8,2.8-2.4,5.2-4.5,7.1c-1.5,1.2-3.1,2.1-4.9,2.8c-1.4,0.6-2.9,0.8-4.4,0.7c-2.9,0.2-5.7-0.6-8.2-2.1c-1.7-1-3.2-2.4-4.3-3.9
		c-0.6-0.7-0.7-1.6-0.3-2.4c0.6-1.2,1.2-2.3,1.9-3.5c0.5-0.9,1-0.9,1.6,0.1C194.9,207.8,195.8,209.1,196.9,210.3z M195.5,202
		c1.3-2.6,7.1-14,8-15.7c0.2,0.4,3,6.1,4,8.6c0.9,1.9,1.6,3.8,2.4,5.7c0.3,0.7,0.5,1.4,0.5,2.2c0.1,1.9-0.5,3.7-1.7,5.1
		c-1,1.3-2.4,2.2-4,2.6c-1.1,0.3-2.2,0.2-3.3-0.1c-0.5-0.2-1-0.3-1.5-0.5c-1.4-0.6-2.5-1.6-3.2-3c-0.5-1-1-1.9-1.5-2.9
		C195.2,203.4,195.2,202.6,195.5,202z M113.4,182.5c-0.3,0.6-0.6,1.3-0.9,2c-0.6,1.2-1.2,2.5-1.8,3.6c-0.8,1.5-1.6,3.1-2.5,4.5
		c-1,1.6-1.8,3.3-2.6,5c-0.5,0.8-0.8,1.7-1,2.7c-0.1,1.1-0.1,2.2,0,3.3c0.2,1.3,0.7,2.5,1.6,3.6c1,1.4,2.3,2.4,3.8,3.1l1.5,0.6
		c4.1,1,8.4-0.9,10.5-4.6c1.7-2.8,3.2-5.7,4.6-8.7l5-9.5l15.2-28.6l3,6.3c-0.1,0.3-0.2,0.6-0.4,0.9c-0.6,1.1-1.2,2.2-1.7,3.3
		c-0.5,0.9-0.9,1.9-1.4,2.8c-1.2,2.4-2.5,4.6-3.6,6.9c-1,1.9-2,3.7-3,5.5c-0.9,1.6-1.8,3.2-2.6,4.7s-1.6,2.9-2.3,4.3
		c-0.9,1.6-1.7,3.3-2.6,4.8s-1.5,3-2.3,4.4c-1,1.9-2.1,3.7-3.2,5.6c-0.3,0.5-0.7,1-1.2,1.5c-1.2,1.4-2.7,2.6-4.2,3.6
		c-1.6,1-3.3,1.7-5.1,2c-1.3,0.2-2.6,0.2-3.8,0.1c-1.6-0.1-3.2-0.5-4.6-1.1c-1.5-0.6-2.8-1.5-4-2.5c-1.2-1-2.2-2.2-2.9-3.6
		c-0.6-1-1.1-2-1.5-3.1c-0.5-1.6-0.7-3.3-0.7-4.9c0-2.5,0.6-5,1.8-7.2c0.7-1.3,1.3-2.5,2-3.7l2.2-4c0.8-1.5,1.6-3,2.3-4.4
		c0.9-1.9,1.9-3.7,3.1-5.5c0.2-0.4,0.7-0.6,1.1-0.4c0.1,0,0.1,0.1,0.2,0.2c0.1,0.2,0.2,0.3,0.3,0.5c0.6,1.2,1.2,2.5,1.8,3.6
		C113.7,181,113.7,181.8,113.4,182.5L113.4,182.5z M114.5,184.5c0.3,0.6,0.6,1.2,0.9,1.9c1.1,2.3,2.1,4.4,3.2,6.7
		c1.1,2.3,2,4.3,3,6.4c0.3,0.8,1.1,3.1,1.1,3.1s-0.4,0.7-0.7,1.2c-0.8,1.4-1.8,2.6-3,3.6c-1,0.8-2.2,1.4-3.5,1.8
		c-3.5,0.7-7.3-1-8.6-4.3c-0.7-1.5-0.8-3.2-0.3-4.7c0.5-1.5,1.1-3,2-4.3c0.5-0.8,0.9-1.8,1.3-2.6s0.9-1.6,1.3-2.4l1.8-3.3
		C113.4,186.6,113.9,185.6,114.5,184.5L114.5,184.5z M123,104.9c-1.3-1.8-3.3-3-5.4-3.5c-2.4-0.5-5,0.1-7,1.5
		c-2.1,1.3-3.5,3.4-3.8,5.8c-0.5,1.9-0.4,3.9,0.4,5.7c0.7,1.6,29,61.7,29,61.7l-0.6,1.2c0,0-20.4-43.1-21.9-45.9
		c-0.6-1.2-7.5-16.6-8.2-18c-0.7-1.6,0-6.5,0.9-8.1c1.4-2.8,4.2-4.8,7.3-5.3c1.3-0.3,2.6-0.2,3.8,0.1c0.6,0.1,1.1,0.2,1.7,0.4
		c2,0.7,3.8,1.9,5,3.6c0.8,1,1.4,2.2,1.9,3.5c-0.2,0.4-0.4,0.8-0.7,1.2C124.6,107.6,123.8,106.2,123,104.9L123,104.9z M124.3,110.9
		c0,0-8.5,16.7-8.8,17.2l-2.2-4.3c-0.5-1-0.9-2-1.3-3.1c-0.4-0.9-0.9-1.8-1.3-2.7c-0.7-1.6-1.4-3.3-2-4.8c-0.4-0.9-0.6-1.8-0.5-2.8
		c0-2.4,1.2-4.6,3.2-5.9c1.1-0.8,2.4-1.2,3.7-1.2c2.6-0.2,5,1,6.5,3.1c0.7,1.1,1.4,2.2,2,3.4C123.9,110.2,124.1,110.6,124.3,110.9z
		 M129.6,155.7c1.3-2.6,2.6-5.2,3.8-7.8c1.2-2.4,2.5-4.6,3.6-6.9c0.2-0.3,0.5-0.7,0.7-1c0.8,1.6,1.6,3.1,2.4,4.5l1.2,2.7
		c0.8,1.8,1.7,3.6,2.6,5.4c0.5,1.1,1,2.3,1.5,3.4c0.3,0.8,0.3,1.6-0.1,2.4l-3,5.6c-0.5,1-0.9,2-1.4,2.9c-1.2,2.2-2.3,4.2-3.5,6.4
		c-0.1,0.3-0.3,0.5-0.5,0.7c-0.1-0.2-0.3-0.4-0.4-0.6l-3-6.2c-1.2-2.5-2.3-4.9-3.4-7.4c-0.3-0.7-0.6-1.3-0.9-2
		C129.1,157.1,129.2,156.4,129.6,155.7L129.6,155.7z M125.1,104.1c-0.7-1-1.5-2-2.6-2.7c-1.2-1-2.6-1.7-4.1-2.1
		c-1.3-0.4-2.7-0.4-4-0.2c-0.7,0.2-1.5,0.2-2.2,0.4c-1.1,0.3-2.2,0.9-3.2,1.6c-0.6,0.4-1.2,0.8-1.7,1.4c-1.1,1-1.9,2.3-2.5,3.6
		c-0.5,1-0.8,2-0.9,3.1c-0.1,1-0.1,1.9,0,2.9c0.2,1.5,0.7,2.9,1.3,4.2c0.5,1.1,29.5,62.7,29.5,62.7l-0.6,1.2c0,0-12.7-26-13.1-27.1
		c-0.9-1.9-16.3-35.1-16.9-36.4c-0.7-1.5-1.2-3-1.4-4.6c-0.4-3,0.3-6.1,2-8.7c1.6-2.4,3.9-4.2,6.5-5.1c0.8-0.2,1.5-0.4,2.3-0.5
		c0.6-0.1,1.2-0.2,1.9-0.2c1.7,0,3.3,0.3,4.9,0.8c1.4,0.5,2.7,1.3,3.7,2.4c1,0.9,1.8,1.9,2.6,3.1c0.3,0.4,0.5,0.8,0.6,1.3l-0.5,1
		c-0.2-0.1-0.3-0.2-0.4-0.4C125.9,105.3,125.5,104.7,125.1,104.1L125.1,104.1z M127.3,102.8c-1.1-1.6-2.5-2.9-4-4
		c-1.5-1-3.2-1.7-4.9-2c-1.5-0.3-3-0.3-4.5,0c-1.5,0.2-3,0.7-4.3,1.4c-1.8,0.9-3.3,2.1-4.6,3.6c-1.4,1.5-2.3,3.3-2.8,5.3
		c-0.2,0.7-0.3,1.4-0.3,2.2v2.8c0,1,0.2,1.9,0.6,2.8c0.2,0.4,0.3,0.8,0.4,1.3c0.3,0.8,0.7,1.8,1.1,2.6c0.6,1.5,29.7,62.9,29.7,62.9
		l-0.6,1.3c0,0-28.4-60.5-29.4-62.5c-0.9-1.9-1.7-3.8-2.4-5.8c-0.4-1.9-0.5-3.8-0.3-5.7c0.1-1.3,0.4-2.6,0.9-3.7
		c1-2.4,2.5-4.5,4.5-6.2c0.6-0.5,1.3-0.9,2-1.3c1.8-1.1,3.8-1.7,5.9-1.9c1.2-0.1,2.4,0,3.6,0.2c2.8,0.2,5.4,1.3,7.5,3.2
		c0.9,0.7,1.8,1.5,2.5,2.5c0.3,0.4,0.6,0.9,0.9,1.4c-0.2,0.3-0.3,0.6-0.5,0.9C127.8,103.5,127.5,103.2,127.3,102.8L127.3,102.8z
		 M92.9,188.1c-1.5,2.7-2.6,5.5-3.4,8.5c-0.4,1.9-0.6,3.9-0.7,5.8c0.1,8.8,4.9,16.8,12.6,21.1c3.8,2.1,8,3.2,12.3,3.2
		c10.7,0,17.1-6.9,18.5-8.4c3.1-3.2,4.7-7.2,5.2-7.9c0.6-1,17.7-33.2,17.7-33.2l0.6,1.2c0,0-12.9,25.3-19.2,36.4
		c-4.7,8.3-13.5,13.4-23.1,13.2c-11.4,0-25.5-9.7-25.5-25.1c-0.1-2.6,0.2-5.3,0.9-7.8c0.6-3.3,10.5-21.8,11.5-23.9
		c0.5-0.9,4.2-8.1,4.2-8.1l0.7,1.3C105.2,164.4,94.2,185.5,92.9,188.1z M89.8,189.2c-1.1,2.3-1.9,4.6-2.4,7.1
		c-0.2,0.6-0.6,2.2-0.6,6.3c0.1,5.8,2.1,11.4,5.6,16c5,6.4,12.7,10.3,20.8,10.5c12.6,0,18.4-6.9,18.8-7.2c0.7-0.6,1.3-1.3,1.9-1.9
		c1.2-1.2,2.2-2.6,3.1-4c0.8-1.2,1.5-2.4,2.2-3.6c1.1-1.9,2.1-3.7,3.1-5.7c1.6-2.9,3.1-5.7,4.5-8.6c0.4-0.8,0.7-1.7,1.1-2.4
		c1-2,2.1-3.9,3.2-5.9c0.9-1.7,1.8-3.5,2.7-5.2c0.7-1.3,2.5-4.8,2.5-4.8l0.6,1.2c0,0-2.3,4.7-3.1,6.3c-1.4,2.7-2.9,5.3-4.2,8
		c-0.6,1.2-1.3,2.4-1.9,3.6c-0.9,1.8-1.8,3.6-2.8,5.3c-1.1,2.2-2.2,4.3-3.4,6.5c-0.7,1.4-1.6,2.7-2.3,4c-0.8,1.6-1.8,3.1-2.9,4.4
		c-0.5,0.6-0.9,1.2-1.4,1.7c-0.5,0.7-1.1,1.3-1.7,1.9c-5.4,5-12.5,7.8-19.8,7.8c-13.4,0-27.9-10.8-27.9-27.4c0-6,0.1-4.1,0.1-4.5
		c0-0.5,0.1-0.9,0.2-1.4c0.5-2.9,1.4-5.7,2.7-8.3c0.9-2,2-3.8,3-5.8c0.7-1.3,7-13.4,7.8-15c1.1-2.1,3.8-7.1,3.8-7.1l0.5,1.4
		C103.9,161.8,94.9,179.1,89.8,189.2L89.8,189.2z M138.7,137.8l0.6-1.3l29.6,63l-0.6,1.3L138.7,137.8z M169.7,196.2
		c0.1,0.3,0.3,0.7,0.5,1l-0.7,1.2l-0.3-0.3c-0.6-1.2-1.2-2.3-1.8-3.5c-0.6-1.2-27.5-59.2-27.5-59.2l0.6-1.3
		C140.5,134,169.1,194.9,169.7,196.2L169.7,196.2z M141.4,132.4l0.6-1.2l29.6,63l-0.6,1.2c0,0-7.5-15.2-8.2-16.9L141.4,132.4z
		 M167.2,202.6c0.3,0.6-0.1,1.1-0.4,1.7c-0.6,1.3-1.5,2.6-2.6,3.6c-0.8,1-1.9,1.7-3.2,2.1c-1.5,0.4-3,0.4-4.4,0
		c-1.7-0.5-3.1-1.5-4.2-2.9c-0.6-0.9-1.1-1.7-1.6-2.6c-0.3-0.5-0.5-1-0.7-1.5c0.4-0.8,0.4-0.9,0.8-1.6c0.7-1.3,7.6-14.6,8.2-15.9
		C159.7,186.8,165.7,199.2,167.2,202.6L167.2,202.6z M151.7,209.2c1.4,1.5,3.3,2.5,5.3,2.9c0.9,0.2,1.9,0.3,2.9,0.2
		c2.6-0.1,4.8-2.5,5.7-3.3c0.9-0.8,5.2-8.3,5.2-8.3l20.7-40.3l0.6,1.2c0,0-19.8,38.5-20.3,39.6c-0.8,1.7-1.7,3.4-2.6,4.9
		c-0.4,0.8-0.9,1.6-1.4,2.4c-1,1.6-2.4,3-4,3.9c-1.5,0.9-3.3,1.3-5,1.2c-1.5-0.1-3-0.4-4.3-1c-1.5-0.7-2.8-1.7-3.9-2.9
		c-0.8-1-1.4-2-2-3.2c0,0,0.5-0.9,0.7-1.2c0.2,0.3,0.4,0.6,0.5,0.9C150.2,207.3,150.8,208.3,151.7,209.2L151.7,209.2z M180.6,172.8
		c-0.9-1.9-1.8-3.6-2.6-5.5c-0.8-1.7-1.5-3.4-2.3-4.9c-0.5-1.1-1-2.2-1.5-3.2c-0.4-0.7-0.4-1.5-0.1-2.3c0.6-1.2,1.3-2.4,1.9-3.6
		l2.4-4.7c1-2,2.1-3.8,3.1-5.7c0.3-0.5,0.6-1,1-1.8c0.8,1.6,1.4,3,2.1,4.3c0.5,1.1,1.1,2.2,1.6,3.3c0.8,1.8,1.6,3.6,2.5,5.4
		c0.4,0.9,0.8,1.9,1.3,2.8c0.4,0.7,0.4,1.6,0,2.4c-0.7,1.4-1.5,2.8-2.2,4.1c-1.2,2.3-2.3,4.5-3.4,6.8c-0.8,1.6-1.7,3.1-2.6,4.7
		C181.3,174.1,180.9,173.4,180.6,172.8L180.6,172.8z M148.5,209.1c0.7,1.2,1.7,2.2,2.8,3.1c1.5,1.1,3.2,1.9,5,2.3
		c1.5,0.3,3.1,0.3,4.6,0c1.5-0.3,2.8-0.9,4-1.8c1.2-0.8,2.3-1.8,3.2-2.9c0.7-0.9,1.3-1.9,1.8-2.9c0.7-1.3,1.4-2.6,2.1-3.9
		c0.6-1.1,20.7-40.2,20.7-40.2l0.6,1.3c0,0-20.5,39.7-21.1,41c-0.4,0.7-0.8,1.4-1.1,2.2c-0.8,1.7-1.9,3.2-3.3,4.5
		c-1,1.1-2.3,2-3.6,2.6c-1.6,0.8-3.4,1.2-5.2,1.2c-1.7,0-3.3-0.3-4.9-0.8c-1.3-0.5-2.6-1.2-3.6-2.1c-1-0.8-1.8-1.8-2.6-2.9
		c-0.2-0.3-0.4-0.6-0.6-1l0.6-1.1C147.7,207.9,148.3,208.8,148.5,209.1L148.5,209.1z M152.2,215.2c1.3,0.7,2.8,1.1,4.2,1.4
		c2.1,0.3,4.3,0.2,6.4-0.3c1.9-0.6,3.6-1.6,5.1-2.9c1.1-1,2.1-2.2,2.9-3.5c1.3-2.1,2.5-4.2,3.5-6.4c0.6-1.4,19.5-38,19.5-38l0.6,1.2
		c0,0-20.3,39.6-21.9,42.5c-2.1,4.2-5.9,7.3-10.6,8.4c-2.4,0.6-5,0.5-7.4-0.2c-2.7-0.7-5.1-2.2-7-4.1l-1.7-2.1
		c0.2-0.3,0.5-1.1,0.7-1.3C148.5,212.4,150.2,214.2,152.2,215.2z M202.8,227.9c9,0.2,17.4-4.6,21.8-12.5c2-3.3,3.1-7,3.2-10.8V202
		c0-1.2-0.2-2.4-0.5-3.6c-0.2-0.9-0.4-1.7-0.7-2.6c-0.4-1.2-1.3-3.5-1.3-3.5l-1.9-4L192,121.8l0.6-1.3c0,0,12.1,25.7,13.2,28.1
		c0.8,1.8,6.4,13.5,6.7,14.2c0.8,1.8,13.9,29.5,13.9,29.5c0.7,1.8,1.4,3.7,1.9,5.6c0.3,1.7,0.5,3.4,0.6,5.1
		c-0.1,1.8-0.3,3.6-0.6,5.4c-0.3,1.8-0.9,3.6-1.7,5.3c-1.3,2.7-3,5.1-5,7.2c-9.9,10.3-26.3,10.7-36.6,0.8c0,0,0,0-0.1-0.1l0,0
		c0.2-0.3,0.4-0.6,0.6-0.9C190.1,225.3,196.3,227.9,202.8,227.9L202.8,227.9z M202.8,230.1c9.1,0.1,17.7-4.5,22.7-12.1
		c2.1-3.2,3.5-6.9,4.1-10.7c0.4-3.3,0.3-6.7-0.4-10c-0.6-2.3-1.4-4.5-2.4-6.6c-1-2.1-33.5-71.3-33.5-71.3l0.6-1.2
		c0,0,32.9,69.5,33.6,71.2c0.9,2,1.8,4.1,2.2,5.1c0.7,2.1,1.1,4.2,1.3,6.4c0.2,1.7,0.1,3.4-0.1,5c-0.1,0.2-0.6,10.1-8,17
		c-4.8,4.4-10.8,8.3-19.9,8.3c-7.3,0-14.3-2.8-19.5-7.8c0.3-0.4,0.4-0.5,0.7-0.9C189.1,227.4,195.8,230.1,202.8,230.1z M213.9,121.8
		c1-1.8,1.9-3.7,2.6-5.6c0.6-1.6,0.7-3.3,0.5-5c-0.2-2.1-1.1-4.1-2.5-5.6c-2.5-3.2-6.6-4.8-10.7-4.2c-1.3,0.2-2.5,0.6-3.6,1.1
		c-0.8,0.3-1.5,0.7-2.1,1.3c-1.7,1.7-3.2,3.7-4.2,5.8c-1.3,2.4-7.1,13.3-7.9,15c-0.5,0.9-0.9,1.9-1.3,2.9l-3.6,6.8
		c-1.1,2.1-2.2,4-3.3,6.1c-0.7,1.3-1.3,2.6-1.9,3.7c-1.1,2.3-4.7,8.9-4.7,8.9l-0.6-1.2c0.1-0.3,0.2-0.7,0.4-1
		c0.9-1.7,1.8-3.5,2.7-5.1c1.3-2.4,2.7-4.7,4-7.2c0.9-1.7,1.7-3.5,2.6-5.1c0.6-1.1,1.2-2.3,1.8-3.4c0.7-1.4,1.5-2.8,2.2-4.1
		c0.6-1.2,1.2-2.5,1.8-3.6c0.5-1,6.4-12.4,6.8-13.1c0.8-1.7,1.8-3.3,3-4.7c1.5-1.6,3.3-2.8,5.3-3.6c1.4-0.4,2.8-0.6,4.2-0.6
		c1.9,0,3.7,0.4,5.4,1.1c1.1,0.5,2.1,1.1,3,1.9c0.9,0.7,1.7,1.6,2.3,2.6c0.9,1.3,1.5,2.7,1.9,4.2c0.2,1,0.4,2,0.4,3.1
		c0,2-0.5,4-1.5,5.8c-0.6,1-1,2-1.5,3c-0.7,1.3-7.6,14.7-7.6,14.7l-0.6-1.1L213.9,121.8z M218.9,116.8c0.3-0.9,0.5-1.7,0.6-2.7
		c0-1.4-0.1-2.8-0.4-4.1c-0.3-1.5-0.8-2.9-1.5-4.2c-0.4-0.5-0.8-1-1.1-1.5c-1.8-1.9-4-3.4-6.4-4.3c-1.8-0.6-3.7-0.9-5.6-0.9
		c-1.1,0.1-2.1,0.3-3.2,0.5c-1.2,0.4-2.3,1-3.3,1.7c-1.2,0.8-2.3,1.7-3.3,2.8c-0.8,0.8-1.5,1.8-2.1,2.8
		c-1.5,2.7-22.7,43.6-22.7,43.6l-0.6-1.3c0,0,18.1-35.2,19.6-37.9c1-1.9,1.9-3.7,3-5.6c0.8-1.3,1.8-2.5,2.9-3.6
		c2.1-2,4.7-3.3,7.5-3.8c1.3-0.2,2.6-0.3,3.9-0.2c2.7,0.2,5.4,1.2,7.6,2.8c1.9,1.1,3.4,2.7,4.5,4.5c0.9,1.4,1.6,3,1.9,4.6
		c0.2,1.3,0.3,2.6,0.3,3.8c-0.2,1.9-0.8,3.7-1.7,5.4c-1.5,2.9-10.1,19.7-10.1,19.7l-0.6-1.3C208.2,137.9,218.2,118.6,218.9,116.8
		L218.9,116.8z M170.4,154.4c0.6,1.3,1.2,2.6,1.7,3.8l1.2,2.4c0.7,1.3,1.3,2.7,2,4c0.4,0.8,0.7,1.6,1,2.5c0.9,2,1.8,3.8,2.6,5.8
		c0.5,1.1,1,2.3,1.5,3.4l0.3,0.9l-3.2,6l-0.2-0.2c-0.5-0.8-0.9-1.6-1.3-2.5c-0.5-1.1-1-2.3-1.6-3.5c-1.3-2.9-2.7-5.8-3.9-8.7
		c-0.3-0.8-0.8-1.5-1.1-2.2c-0.8-1.7-1.5-3.3-2.2-4.9c-0.5-1.1-1.1-2.1-1.6-3.2c-1.7-3.5-3.3-7-4.8-10.5c-0.8-1.7-1.6-3.3-2.4-4.9
		l-1.8-3.8c-0.3-0.6-0.6-1.1-0.9-1.7c-1-2.2-2.1-4.3-3.1-6.5c-0.9-1.8-1.7-3.6-2.6-5.5c-0.9-1.6-1.6-3.2-2.2-4.9
		c-0.1-0.3-0.1-0.5,0-0.8c0.6-1.6,1.4-3.2,2.4-4.6c0.2-0.4,0.7-0.6,1.1-0.4c0.1,0.1,0.3,0.2,0.3,0.3c0.3,0.4,0.5,0.8,0.7,1.2
		c1,2,2,3.9,2.9,6c1.1,2.4,2.2,4.8,3.4,7.2c0.1,0.3,0.3,0.6,0.4,0.9c0.6,1.4,1.2,2.7,1.9,3.9s1.4,2.8,2,4.2c0.7,2.1,1.8,4,2.6,6.1
		c0.4,1,1,2,1.5,3c0.6,1.3,1.3,2.7,1.9,3.9C169.3,152.3,169.8,153.4,170.4,154.4L170.4,154.4z M160.4,129.7
		c-0.6-1.3-1.1-2.4-1.6-3.6l-0.3-0.6c-1.2-2.5-2.4-4.8-3.6-7.3c-0.7-1.5-1.3-3.1-2.1-4.5c-0.5-0.8-0.5-1.8,0-2.7
		c0.7-1.8,1.8-3.5,3.3-4.8c1.6-1.5,3.8-2.1,5.9-1.6c2.6,0.5,4.7,2.2,5.7,4.6c0.3,0.7,0.6,1.4,1,2.1c0.5,0.9,0.4,2.1-0.2,3
		c-1,1.8-1.9,3.6-2.8,5.3c-0.5,1-0.9,2-1.4,3c-1.1,2.1-2.2,4.2-3.3,6.3C160.8,129.1,160.6,129.4,160.4,129.7L160.4,129.7z
		 M167,105.1c-1.4-1.2-3.2-2-5-2.3c-1.5-0.2-3,0-4.3,0.6c-0.6,0.3-1.2,0.6-1.8,1c-1,0.7-1.8,1.6-2.4,2.7c-1,1.5-1.9,3-2.8,4.5
		c-0.6,1.1-1,2.2-1.6,3.3c-0.6,1.1-1.3,2.4-2,3.6c-1.1,1.9-2.2,3.8-3.2,5.8c-0.8,1.6-1.8,3.1-2.6,4.6c-0.3,0.5-0.4,1.1-0.7,1.6
		c-1,2.1-2.1,4-3.2,6.1c-1.4,2.7-2.9,5.3-4.2,8.1l-3.3,6.2c-0.6,1.1-1.2,2.1-1.8,3.2c-0.2,0.5-0.7,0.7-1.1,0.5c0,0,0,0-0.1,0
		c-0.2-0.1-0.4-0.2-0.4-0.4c-0.9-1.5-1.6-3.2-2.2-4.8c-0.1-0.2-0.1-0.3-0.1-0.5c0.1-0.5,0.3-1,0.5-1.5c1.2-2.4,2.4-4.6,3.6-6.9
		c0.9-1.8,1.9-3.5,2.9-5.1c0.4-0.8,0.8-1.7,1.2-2.6c0.6-1.2,1.2-2.4,1.8-3.5c1.2-1.9,2.1-3.9,3.2-5.9c1.3-2.6,2.7-5,3.9-7.5
		c0.6-1.2,1.2-2.3,1.8-3.5l2.7-5c0.5-1,1.1-1.9,1.6-2.8c1.3-2,3-3.8,4.9-5.1c0.9-0.6,1.8-1,2.8-1.4c1.8-0.6,3.7-0.9,5.6-0.9
		c2.2,0.1,4.3,0.6,6.3,1.4c0.8,0.4,1.6,0.9,2.3,1.5c0.6,0.4,1.2,0.9,1.8,1.4c0.5,0.5,0.9,1,1.3,1.5c0.3,0.3,0.5,0.6,0.8,1l-3.3,6.4
		C169.3,108.4,168.3,106.6,167,105.1z M169,89.2c-3.2-1.1-6.5-1.6-9.9-1.6c-2,0.1-3.9,0.4-5.7,1.1c-3.3,1-6.3,2.7-9,4.8
		c-1.4,1.1-2.6,2.4-3.6,3.8c-0.9,1.3-1.8,2.5-2.6,3.8c-0.5,0.7-0.9,1.4-1.3,2.2c-0.7,1.2-1.4,2.4-2,3.6c-0.5,1-15.7,29.8-15.7,29.8
		l-0.6-1.2c0,0,7.5-14.9,13.2-25.7c2.9-5.4,5.5-9.9,6-10.8c0.6-1.1,1.3-2.1,2.2-3.1c0.8-1,1.7-1.9,2.6-2.8c1-1,2.1-1.8,3.3-2.6
		c1-0.7,2-1.3,3.1-1.8c1.5-0.8,3-1.3,4.6-1.7c3-0.8,6.2-1,9.3-0.6c3.1,0.4,6.1,1.2,9,2.6c2.1,1.1,4,2.4,5.8,3.9l0.9,0.9l-0.6,0.9
		l-0.3-0.3C177,94.1,173.2,90.9,169,89.2L169,89.2z M175.7,89.8c-3.4-2.1-7.3-3.5-11.2-4c-3.6-0.5-7.3-0.3-10.8,0.7
		c-1.6,0.5-3.2,1.1-4.7,1.7c-2,0.9-3.8,2.1-5.4,3.6c-1,1-2.1,1.9-3.1,2.9c-1.3,1.4-2.5,2.9-3.4,4.6c-0.5,0.9-1.1,1.7-1.5,2.5
		l-17.5,32.5l-0.6-1.3c0,0,10.3-20.2,16.3-31.1c1.3-2.3,2.8-4.5,4.4-6.5c1.1-1.6,2.5-3.1,3.9-4.3c1.5-1.4,3.2-2.5,5-3.6
		c1.3-0.8,2.8-1.4,4.2-1.9c2.3-0.7,4.7-1.1,7.1-1.3c3.2-0.1,6.4,0.2,9.5,1c2.8,0.8,5.5,1.9,8,3.4c1.5,1,2.8,2.1,4,3.4l0.1,0.1
		c-0.2,0.3-0.4,0.5-0.6,0.7l-0.1-0.1C178.2,91.8,177,90.7,175.7,89.8L175.7,89.8z M101,151.8c-0.5-1-0.9-2.1-1.4-3.1
		c-0.5-1.2-1.1-2.3-1.7-3.5c-0.2-0.4-0.3-0.7-0.5-1.1c-0.5-1.1-1-2.1-1.5-3.2c-0.7-1.4-1.3-2.9-1.9-4.2c-0.3-0.5-0.6-1-0.8-1.6
		c-1.4-2.9-2.8-5.7-4-8.7c-0.9-1.8-1.7-3.8-2.3-5.7l-1.2-4.7c-0.3-1.3-0.4-2.6-0.4-3.8c0-0.6-0.2-1.2-0.2-1.8c0.1-2,0.3-4,0.7-6
		c0.5-2.1,1.2-4.1,2.1-6.1c2.2-4.2,5.2-7.9,8.8-10.9c4.2-3.4,9.1-5.6,14.4-6.4c4.9-0.8,10-0.4,14.7,1.3c5.5,2,10.3,5.6,11.6,7.4
		c-1.5,1.9-2.7,3.4-3.6,4.4c-4.7-4.9-11.3-7.8-18.1-7.8c-5.5,0-10.9,1.8-15.2,5.2c-3.3,2.8-6,6.3-7.9,10.3c-0.6,1.9-1.1,3.8-1.4,5.7
		c-0.2,1.7-0.3,3.4-0.1,5.1c0,0.9,0.2,1.8,0.4,2.7c0.3,0.9,0.4,1.9,0.7,2.8c0.4,1.2,0.8,2.3,1.3,3.5c1,2.2,2,4.2,3,6.3
		c0.6,1.2,1.1,2.4,1.6,3.6c1.2,2.5,2.4,4.9,3.5,7.3c1,2,1.9,3.9,2.9,6c0.6,1.2,1.1,2.5,1.7,3.7l1.5,3l1.8,3.8
		c0.5,1.2,16.1,34.9,17.1,37c0.1,0.3,0.2,0.5,0.4,0.8c0.1,0.3,0.1,0.6,0.2,0.8l-3.2,6c0,0-20.7-43.9-21.3-45.1
		C102.1,153.8,101.6,152.8,101,151.8L101,151.8z M133.4,225.4c-1.3,1.1-2.6,2-4,2.9c-0.8,0.5-6,4.2-16.7,4.2c-8,0-16.1-4.2-21.3-10
		c-5.2-5.6-8.1-13-8.1-20.7c0.1-3.8,0.7-7.6,2-11.1c4.7-9.7,16.8-32.7,16.8-32.7l0.6,1.3c0,0-10.3,19.8-15.7,30.5
		c-1.7,4-2.5,8.2-2.5,12.5c0,15.8,13.4,29,29.3,29c14.4,0,20.9-9,21.5-9.7c1.4-1.5,2.7-3.1,3.8-4.8c1.1-1.7,2.2-3.4,3.1-5.2
		c0.8-1.4,1.4-2.9,2.2-4.2c0.8-1.6,1.8-3.2,2.6-4.7c0.6-1.1,1-2.2,1.6-3.3c0.6-1.1,9.1-17.2,9.1-17.2l0.6,1.3
		c0,0-10.7,20.7-11.5,22.3c-0.3,0.6-3.6,6.9-4.9,9.5c-1.3,2.1-2.7,4.2-4.2,6.2C136.2,222.7,134.8,224.1,133.4,225.4L133.4,225.4z
		 M179.2,225.5c-1,0.9-9.6,8.1-20.3,8.1c-13.2,0-21.6-8.5-21.8-8.9c1.1-1.2,2.8-3.6,3.8-4.5c0.4,0.3,0.7,0.6,1.1,0.9
		c2.3,2.2,5.1,3.8,8.1,4.9c1.7,0.6,3.5,1,5.3,1.2c0.9,0.1,1.9,0.1,2.8,0.2c5.5,0.1,11-1.7,15.4-5c1.8-1.3,3.4-3,4.7-4.8
		c1.4-2.1,2.8-4.1,3.9-6.3c0.9-1.6,1.6-3.3,2.5-4.8s1.6-3.3,2.4-4.8c1-2.1,2.2-4,3.2-6c0.7-1.5,1.4-3,2.1-4.3c1.1-2.1,2.3-4,3.4-6.1
		c0.6-1.1,1.1-2.2,1.7-3.3c0.5-1.1,1.2-2.2,1.9-3.3c0.2-0.2,0.4-0.5,0.6-0.7l3,6.3c0,0-3.5,7.1-4.1,8.3c-0.3,0.5-0.5,1-0.8,1.5
		c-0.9,1.6-1.8,3.2-2.7,4.8c-1.6,3-3.1,6-4.6,9.1c-1.1,2.2-2.4,4.2-3.5,6.4c-0.9,1.9-2,3.7-3.2,5.4
		C182.7,221.8,181.1,223.8,179.2,225.5L179.2,225.5z M229.9,188.8c0.7,1.5,1.3,3.1,1.9,4.7c0.6,1.6,1,3.3,1.4,4.9
		c0.1,0.8,0.2,1.5,0.2,2.3c0.3,1.8,0.3,3.6,0.1,5.3c-0.1,1.7-0.5,3.4-1.1,4.9c-1.2,4.5-3.4,8.6-6.4,12c-5.8,6.9-14.4,10.8-23.4,10.7
		c-10.7,0-18.5-6.3-18.9-6.6s-1.9-1.8-1.9-1.8l0.8-0.9c0,0,1.1,1.1,1.5,1.4c5.5,4.3,12.3,6.7,19.2,6.6c10.4,0,19.4-6.3,23.7-12.8
		c2.9-4.5,4.6-9.7,5-15.1c0.2-4.8-0.8-9.6-2.9-14c-0.6-1.5-3.6-7.8-4.3-9.6c-1.3-2.6-30.3-64.4-30.3-64.4l0.7-1.2
		C195.5,115.4,229,186.7,229.9,188.8L229.9,188.8z M234.6,121.9c-0.7,2.2-1.5,4.4-2.6,6.4c-0.5,1.1-1.2,2.1-1.8,3.2
		c-0.6,1.1-1,2.2-1.6,3.2c-0.7,1.4-1.5,2.8-2.2,4c-0.2,0.4-0.5,0.9-0.7,1.3c-1,2-2.1,3.9-3.1,5.9c-1.2,2.4-2.4,4.6-3.6,7
		c-0.5,1-1,1.9-1.5,2.9c-0.1,0.2-0.2,0.3-0.3,0.5c-0.2,0.2-0.5,0.4-0.8,0.5c-0.4,0.1-0.5-0.3-0.7-0.6c-0.3-0.6-0.6-1.1-0.9-1.7
		c-0.3-0.6-0.5-1.2-0.8-1.7c-0.7-1.1-0.6-2.5,0.1-3.6c0.5-0.9,0.9-1.9,1.4-2.8c0.9-1.8,1.9-3.6,2.9-5.4s2-3.6,2.9-5.4
		c0.3-0.8,0.7-1.5,1.2-2.3c0.6-1.2,1.2-2.3,1.9-3.5c0.7-1.1,1.1-2.3,1.7-3.3c1.1-2,2-4,2.8-6.1c2.1-5.3,2-11.2-0.2-16.5
		c-4.4-11.1-15.5-15.5-22.5-15.5c-7.4-0.1-14.4,3.1-19.1,8.8c-1.4,1.5-2.7,3.2-3.6,5c-1,1.8-2,3.6-3,5.4c-0.8,1.5-1.5,3-2.3,4.4
		s-1.5,3.2-2.3,4.7c-0.5,1-1.1,2-1.6,3c-0.6,1.3-1.2,2.5-1.8,3.7c-0.3,0.6-0.6,1.1-0.9,1.7c-1.1,2.1-2.2,4.2-3.3,6.3l-1.8,3.3
		c-0.5,0.9-1,1.9-1.5,2.8l-0.6,0.9l-3-6.3c0.1-0.2,0.1-0.4,0.2-0.5c0.6-1.1,7.1-13.7,8.3-16c0.6-1.1,2.6-5,3.1-5.9
		c1.1-2.2,2.3-4.2,3.5-6.4l3-5.6c0.8-1.5,1.8-2.9,2.9-4.2c1.5-1.8,3.1-3.5,4.9-4.9c3.7-2.7,8-4.5,12.5-5.4c1.1-0.2,2.3-0.4,3.4-0.5
		c3.8-0.2,7.6,0.2,11.2,1.3c1.8,0.5,3.4,1.1,5,2c2.2,1.1,4.2,2.4,6,3.9c4.6,4.1,8,9.5,9.6,15.5C237,113.3,234.7,121.2,234.6,121.9
		L234.6,121.9z"/>
	<g>
		<rect x="155" y="2.2" class="st0" width="3.8" height="11"/>
		
			<rect x="146.7" y="2.5" transform="matrix(0.9985 -5.564724e-02 5.564724e-02 0.9985 -0.2135 8.2847)" class="st0" width="3.8" height="11"/>
		
			<rect x="138.4" y="3.1" transform="matrix(0.9938 -0.1109 0.1109 0.9938 -9.507529e-02 15.6242)" class="st0" width="3.8" height="11"/>
		
			<rect x="130.8" y="3.8" transform="matrix(0.9856 -0.1692 0.1692 0.9856 0.3342 22.5921)" class="st0" width="3.9" height="11.1"/>
		<rect x="122.1" y="5.9" transform="matrix(0.9754 -0.2205 0.2205 0.9754 0.5312 27.6235)" class="st0" width="3.8" height="11"/>
		<rect x="114.1" y="8" transform="matrix(0.9616 -0.2743 0.2743 0.9616 0.7514 32.3308)" class="st0" width="3.8" height="11"/>
		<rect x="106.1" y="10.5" transform="matrix(0.9449 -0.3274 0.3274 0.9449 0.6948 36.25)" class="st0" width="3.8" height="11"/>
		<rect x="98.3" y="13.4" transform="matrix(0.9252 -0.3795 0.3795 0.9252 0.3119 39.4358)" class="st0" width="3.8" height="11"/>
		<rect x="90.7" y="16.9" transform="matrix(0.9027 -0.4302 0.4302 0.9027 -0.6206 42.0251)" class="st0" width="3.8" height="11"/>
		<rect x="83.4" y="20.6" transform="matrix(0.8774 -0.4798 0.4798 0.8774 -2.0531 44.1306)" class="st0" width="3.8" height="11"/>
		<rect x="76.2" y="24.8" transform="matrix(0.8494 -0.5277 0.5277 0.8494 -4.2461 45.7975)" class="st0" width="3.8" height="11"/>
		<rect x="69.3" y="29.4" transform="matrix(0.8188 -0.5741 0.5741 0.8188 -7.124 47.1972)" class="st0" width="3.8" height="11"/>
		<rect x="62.6" y="34.4" transform="matrix(0.7856 -0.6187 0.6187 0.7856 -10.8587 48.474)" class="st0" width="3.8" height="11"/>
		<rect x="56.2" y="39.7" transform="matrix(0.75 -0.6614 0.6614 0.75 -15.4065 49.7575)" class="st0" width="3.8" height="11"/>
		<rect x="50.1" y="45.3" transform="matrix(0.7121 -0.702 0.702 0.7121 -20.722 51.1751)" class="st0" width="3.8" height="11"/>
		
			<rect x="44.4" y="51.3" transform="matrix(0.6721 -0.7405 0.7405 0.6721 -26.9003 52.9568)" class="st0" width="3.8" height="11"/>
		
			<rect x="39.2" y="57.5" transform="matrix(0.6283 -0.7779 0.7779 0.6283 -33.7741 55.442)" class="st0" width="3.9" height="11.1"/>
		<rect x="34" y="64.2" transform="matrix(0.5858 -0.8105 0.8105 0.5858 -41.677 57.9929)" class="st0" width="3.8" height="11"/>
		
			<rect x="29.3" y="71.2" transform="matrix(0.5398 -0.8418 0.8418 0.5398 -50.2356 61.5705)" class="st0" width="3.8" height="11"/>
		<rect x="25" y="78.3" transform="matrix(0.4923 -0.8704 0.8704 0.4923 -59.2894 65.9791)" class="st0" width="3.8" height="11"/>
		
			<rect x="21.1" y="85.6" transform="matrix(0.4429 -0.8966 0.8966 0.4429 -68.8476 71.3944)" class="st0" width="3.8" height="11"/>
		
			<rect x="17.7" y="93.1" transform="matrix(0.3925 -0.9198 0.9198 0.3925 -78.8347 77.9823)" class="st0" width="3.8" height="11"/>
		
			<rect x="14.7" y="100.9" transform="matrix(0.3409 -0.9401 0.9401 0.3409 -89.1308 85.7713)" class="st0" width="3.8" height="11"/>
		
			<rect x="12.1" y="108.9" transform="matrix(0.2882 -0.9576 0.9576 0.2882 -99.5768 94.8161)" class="st0" width="3.8" height="11"/>
		
			<rect x="9.9" y="116.8" transform="matrix(0.2345 -0.9721 0.9721 0.2345 -109.8699 105.1327)" class="st0" width="3.8" height="11"/>
		
			<rect x="8.1" y="125" transform="matrix(0.1802 -0.9836 0.9836 0.1802 -120.1691 116.8609)" class="st0" width="3.8" height="11"/>
		
			<rect x="6.7" y="133.8" transform="matrix(0.1302 -0.9915 0.9915 0.1302 -130.6606 129.7383)" class="st0" width="3.8" height="11"/>
		
			<rect x="6.1" y="141.5" transform="matrix(6.940831e-02 -0.9976 0.9976 6.940831e-02 -139.164 144.8784)" class="st0" width="3.8" height="11"/>
		
			<rect x="5.8" y="149.8" transform="matrix(1.378768e-02 -0.9999 0.9999 1.378768e-02 -147.6411 160.8638)" class="st0" width="3.8" height="11"/>
		
			<rect x="2.2" y="161.7" transform="matrix(0.9991 -4.152690e-02 4.152690e-02 0.9991 -6.7893 0.463)" class="st0" width="11" height="3.8"/>
		
			<rect x="2.9" y="170" transform="matrix(0.9953 -9.688807e-02 9.688807e-02 0.9953 -16.6199 1.6271)" class="st0" width="11" height="3.8"/>
		<rect x="3.9" y="178.2" transform="matrix(0.9884 -0.1521 0.1521 0.9884 -27.2952 3.5311)" class="st0" width="11" height="3.8"/>
		<rect x="5.5" y="186.4" transform="matrix(0.9784 -0.2067 0.2067 0.9784 -38.6885 6.3414)" class="st0" width="11" height="3.8"/>
		
			<rect x="7.4" y="194.5" transform="matrix(0.9654 -0.2607 0.2607 0.9654 -50.7526 10.1495)" class="st0" width="11" height="3.8"/>
		
			<rect x="9.9" y="202.5" transform="matrix(0.9494 -0.3142 0.3142 0.9494 -63.4325 15.1783)" class="st0" width="11" height="3.8"/>
		
			<rect x="12.7" y="210.2" transform="matrix(0.9304 -0.3665 0.3665 0.9304 -76.493 21.4391)" class="st0" width="11" height="3.8"/>
		
			<rect x="15.8" y="217.9" transform="matrix(0.9087 -0.4174 0.4174 0.9087 -89.7886 28.976)" class="st0" width="11" height="3.8"/>
		
			<rect x="19.6" y="225.3" transform="matrix(0.8841 -0.4673 0.4673 0.8841 -103.2936 38.0893)" class="st0" width="11" height="3.8"/>
		
			<rect x="23.7" y="232.5" transform="matrix(0.8568 -0.5156 0.5156 0.8568 -116.7006 48.6535)" class="st0" width="11" height="3.8"/>
		
			<rect x="28.2" y="239.6" transform="matrix(0.8269 -0.5624 0.5624 0.8269 -129.969 60.7649)" class="st0" width="11" height="3.8"/>
		
			<rect x="33.1" y="246.2" transform="matrix(0.7944 -0.6074 0.6074 0.7944 -142.7813 74.4725)" class="st0" width="11" height="3.8"/>
		
			<rect x="38.4" y="252.7" transform="matrix(0.7595 -0.6505 0.6505 0.7595 -155.1055 89.788)" class="st0" width="11" height="3.8"/>
		<rect x="43.9" y="258.9" transform="matrix(0.722 -0.6919 0.6919 0.722 -166.7281 106.69)" class="st0" width="11" height="3.8"/>
		
			<rect x="49.8" y="264.7" transform="matrix(0.6825 -0.7309 0.7309 0.6825 -177.3245 125.0912)" class="st0" width="11" height="3.8"/>
		
			<rect x="56.1" y="270.2" transform="matrix(0.6408 -0.7677 0.7677 0.6408 -186.765 145.0667)" class="st0" width="11" height="3.8"/>
		
			<rect x="62.6" y="275.3" transform="matrix(0.5972 -0.8021 0.8021 0.5972 -194.9227 166.3356)" class="st0" width="11" height="3.8"/>
		
			<rect x="69.4" y="280.1" transform="matrix(0.5518 -0.834 0.834 0.5518 -201.594 188.9017)" class="st0" width="11" height="3.8"/>
		
			<rect x="75.2" y="283.4" transform="matrix(0.5026 -0.8645 0.8645 0.5026 -206.5269 211.6381)" class="st0" width="11" height="3.8"/>
		
			<rect x="83.8" y="288.4" transform="matrix(0.4557 -0.8901 0.8901 0.4557 -209.8079 237.5518)" class="st0" width="11" height="3.8"/>
		
			<rect x="91.3" y="292" transform="matrix(0.4053 -0.9142 0.9142 0.4053 -211.0881 263.297)" class="st0" width="11" height="3.8"/>
		
			<rect x="99" y="295.1" transform="matrix(0.3541 -0.9352 0.9352 0.3541 -210.2727 289.6093)" class="st0" width="11" height="3.8"/>
		
			<rect x="105.6" y="297.8" transform="matrix(0.3011 -0.9536 0.9536 0.3011 -208.1042 315.4208)" class="st0" width="11" height="3.8"/>
		
			<rect x="114.8" y="300.2" transform="matrix(0.248 -0.9688 0.9688 0.248 -202.1665 343.709)" class="st0" width="11" height="3.8"/>
		
			<rect x="122.9" y="302" transform="matrix(0.1939 -0.981 0.981 0.1939 -194.6019 371.0033)" class="st0" width="11" height="3.8"/>
		
			<rect x="131.1" y="303.3" transform="matrix(0.1387 -0.9903 0.9903 0.1387 -184.6753 398.1933)" class="st0" width="11" height="3.8"/>
		
			<rect x="139.4" y="304.2" transform="matrix(8.350394e-02 -0.9965 0.9965 8.350394e-02 -172.2774 425.0141)" class="st0" width="11" height="3.8"/>
		
			<rect x="147.6" y="304.7" transform="matrix(2.827062e-02 -0.9996 0.9996 2.827062e-02 -157.6501 451.0539)" class="st0" width="11" height="3.8"/>
		
			<rect x="159.6" y="301" transform="matrix(0.9996 -2.722377e-02 2.722377e-02 0.9996 -8.2845 4.5119)" class="st0" width="3.8" height="11"/>
		
			<rect x="167.8" y="300.6" transform="matrix(0.9966 -8.263427e-02 8.263427e-02 0.9966 -24.7175 15.0744)" class="st0" width="3.8" height="11"/>
		<rect x="176.5" y="299.3" transform="matrix(0.9901 -0.14 0.14 0.9901 -40.9178 27.9879)" class="st0" width="3.8" height="11"/>
		
			<rect x="184.3" y="298.2" transform="matrix(0.9813 -0.1927 0.1927 0.9813 -55.0445 41.5775)" class="st0" width="3.8" height="11"/>
		
			<rect x="192.4" y="296.5" transform="matrix(0.9691 -0.2468 0.2468 0.9691 -68.5322 57.3107)" class="st0" width="3.8" height="11"/>
		
			<rect x="200.4" y="294.1" transform="matrix(0.9539 -0.3002 0.3002 0.9539 -80.6229 74.5534)" class="st0" width="3.8" height="11"/>
		<polygon class="st0" points="206.4,292.4 210,291 213.9,301.4 210.3,302.8 		"/>
		
			<rect x="215.9" y="288.2" transform="matrix(0.9145 -0.4045 0.4045 0.9145 -100.1788 113.2243)" class="st0" width="3.8" height="11"/>
		<polygon class="st0" points="221.1,286.1 224.5,284.4 229.6,294.2 226.1,296 		"/>
		
			<rect x="228.9" y="280.3" transform="matrix(0.8645 -0.5026 0.5026 0.8645 -112.3723 154.7202)" class="st0" width="3.8" height="11"/>
		
			<rect x="237.7" y="276.2" transform="matrix(0.8348 -0.5505 0.5505 0.8348 -115.5334 178.4513)" class="st0" width="3.8" height="11"/>
		
			<rect x="244.5" y="271.4" transform="matrix(0.8029 -0.5961 0.5961 0.8029 -116.504 201.4866)" class="st0" width="3.8" height="11"/>
		
			<rect x="251" y="266.3" transform="matrix(0.7685 -0.6398 0.6398 0.7685 -115.3655 224.7831)" class="st0" width="3.8" height="11"/>
		
			<rect x="256.5" y="260.8" transform="matrix(0.7317 -0.6816 0.6816 0.7317 -112.2075 247.5905)" class="st0" width="3.8" height="11"/>
		<polygon class="st0" points="259.9,258.1 262.5,255.3 270.4,262.9 267.8,265.7 		"/>
		
			<rect x="268.8" y="248.8" transform="matrix(0.6514 -0.7587 0.7587 0.6514 -98.5749 294.0579)" class="st0" width="3.8" height="11"/>
		
			<rect x="274.1" y="242.4" transform="matrix(0.6083 -0.7937 0.7937 0.6083 -88.6398 316.1277)" class="st0" width="3.8" height="11"/>
		<polygon class="st0" points="275.1,239.7 277.3,236.5 286.4,242.7 284.3,245.9 		"/>
		<polygon class="st0" points="279.6,232.9 281.6,229.7 291,235.3 289,238.7 		"/>
		<polygon class="st0" points="283.6,226 285.4,222.6 295.2,227.8 293.4,231.2 		"/>
		<polygon class="st0" points="287.2,218.8 288.8,215.4 298.8,220 297.2,223.5 		"/>
		<polygon class="st0" points="290.4,211.5 291.8,208 302.1,212 300.7,215.6 		"/>
		<polygon class="st0" points="293.3,204 294.5,200.4 304.9,204 303.7,207.5 		"/>
		
			<rect x="299.6" y="190.5" transform="matrix(0.2615 -0.9652 0.9652 0.2615 33.5026 435.7613)" class="st0" width="3.8" height="11"/>
		
			<rect x="301.5" y="182.4" transform="matrix(0.2072 -0.9783 0.9783 0.2072 56.6777 445.8429)" class="st0" width="3.8" height="11"/>
		<rect x="303" y="174.2" transform="matrix(0.1526 -0.9883 0.9883 0.1526 80.708 453.649)" class="st0" width="3.8" height="11"/>
		
			<rect x="304" y="166" transform="matrix(9.758288e-02 -0.9952 0.9952 9.758288e-02 105.3582 459.2072)" class="st0" width="3.8" height="11"/>
		
			<rect x="304.5" y="157.7" transform="matrix(4.205010e-02 -0.9991 0.9991 4.205010e-02 130.466 462.587)" class="st0" width="3.8" height="11"/>
		
			<rect x="301.1" y="153.1" transform="matrix(0.9999 -1.378766e-02 1.378766e-02 0.9999 -2.1077 4.2421)" class="st0" width="11" height="3.8"/>
		
			<rect x="300.7" y="144.7" transform="matrix(0.9976 -6.940825e-02 6.940825e-02 0.9976 -9.4365 21.6071)" class="st0" width="11" height="3.8"/>
		
			<rect x="299.9" y="136.5" transform="matrix(0.9922 -0.1248 0.1248 0.9922 -14.8872 39.2043)" class="st0" width="11" height="3.8"/>
		
			<rect x="298.6" y="128.2" transform="matrix(0.9838 -0.1795 0.1795 0.9838 -18.4194 56.7045)" class="st0" width="11" height="3.8"/>
		<polygon class="st0" points="297.5,125.1 296.6,121.5 307.3,118.8 308.3,122.6 		"/>
		<polygon class="st0" points="295.5,117.5 294.4,113.8 305,110.5 306.1,114.2 		"/>
		<polygon class="st0" points="293.1,109.8 291.8,106.2 302.2,102.5 303.4,106 		"/>
		<polygon class="st0" points="290.2,102.3 288.8,98.8 298.9,94.5 300.4,97.9 		"/>
		<polygon class="st0" points="287,95 285.3,91.6 295.2,86.7 296.8,90.1 		"/>
		<polygon class="st0" points="283.3,87.9 281.5,84.5 291,79.1 292.9,82.4 		"/>
		<polygon class="st0" points="279.3,81 277.2,77.8 286.5,71.8 288.6,75 		"/>
		<polygon class="st0" points="274.8,74.4 272.6,71.2 281.6,64.8 283.8,67.8 		"/>
		<polygon class="st0" points="270,67.8 267.6,64.9 276.2,58 278.6,60.9 		"/>
		<polygon class="st0" points="264.9,61.7 262.3,59 270.5,51.5 273.1,54.3 		"/>
		<polygon class="st0" points="259.5,55.9 256.7,53.2 264.5,45.4 267.3,48 		"/>
		<polygon class="st0" points="253.6,50.4 250.8,47.8 258.1,39.5 260.9,42.1 		"/>
		<polygon class="st0" points="247.5,45.2 244.6,42.8 251.4,34.1 254.4,36.5 		"/>
		<polygon class="st0" points="241.2,40.3 238.1,38.2 244.5,29.1 247.5,31.2 		"/>
		<polygon class="st0" points="234.6,35.9 231.3,33.8 237.2,24.4 240.4,26.4 		"/>
		<polygon class="st0" points="227.7,31.7 224.3,29.9 229.7,20.2 233,22 		"/>
		<polygon class="st0" points="220.6,28 217.2,26.3 222,16.4 225.4,18 		"/>
		<polygon class="st0" points="213.4,24.6 209.8,23.3 214,13 217.5,14.5 		"/>
		<polygon class="st0" points="205.9,21.8 202.4,20.5 205.9,10 209.6,11.3 		"/>
		<polygon class="st0" points="198.3,19.2 194.7,18.2 197.7,7.6 201.4,8.7 		"/>
		<polygon class="st0" points="190.6,17.1 186.9,16.4 189.3,5.6 193,6.4 		"/>
		<polygon class="st0" points="182.7,15.6 179,14.9 180.9,4 184.6,4.6 		"/>
		<polygon class="st0" points="174.8,14.3 171.1,13.9 172.3,2.9 176,3.3 		"/>
		<polygon class="st0" points="163.1,13.4 166.8,13.6 167.4,2.5 163.7,2.3 		"/>
	</g>
	<ellipse class="st1" cx="159.2" cy="157.2" rx="105.2" ry="104.6"/>
</g>
</svg>
